<svg width="20" heigh="20" xmlns="http://www.w3.org/2000/svg" viewBox="64 64 512 512"><title>More info</title><path d="M320 112c114.9 0 208 93.1 208 208s-93.1 208-208 208-208-93.1-208-208 93.1-208 208-208m0 464c141.4 0 256-114.6 256-256S461.4 64 320 64 64 178.6 64 320s114.6 256 256 256m-40-176c-13.3 0-24 10.7-24 24s10.7 24 24 24h80c13.3 0 24-10.7 24-24s-10.7-24-24-24h-8v-88c0-13.3-10.7-24-24-24h-48c-13.3 0-24 10.7-24 24s10.7 24 24 24h24v64zm40-144c17.7 0 32-14.3 32-32s-14.3-32-32-32-32 14.3-32 32 14.3 32 32 32"/></svg>